<svg width="2160" height="1080" viewBox="0 0 2160 1080" fill="none" xmlns="http://www.w3.org/2000/svg">
<rect width="2160" height="1080" rx="20" fill="white"/>
<path d="M584 543.208C584 526.466 587.461 511.575 594.383 498.536C601.466 485.335 611.447 475.113 624.326 467.869C637.204 460.464 652.014 456.761 668.756 456.761C690.006 456.761 707.874 462.476 722.363 473.906C736.851 485.174 746.188 500.548 750.373 520.026H699.423C696.364 513.587 692.098 508.677 686.625 505.297C681.313 501.916 675.115 500.226 668.032 500.226C657.085 500.226 648.312 504.17 641.711 512.058C635.272 519.785 632.053 530.168 632.053 543.208C632.053 556.408 635.272 566.952 641.711 574.84C648.312 582.567 657.085 586.431 668.032 586.431C675.115 586.431 681.313 584.741 686.625 581.36C692.098 577.979 696.364 573.069 699.423 566.63H750.373C746.188 586.109 736.851 601.563 722.363 612.993C707.874 624.261 690.006 629.895 668.756 629.895C652.014 629.895 637.204 626.273 624.326 619.029C611.447 611.624 601.466 601.402 594.383 588.363C587.461 575.162 584 560.111 584 543.208Z" fill="#4F3835"/>
<path d="M799.588 630.378C786.065 630.378 773.911 627.561 763.126 621.927C752.501 616.293 744.13 608.244 738.013 597.78C731.896 587.316 728.837 575.001 728.837 560.835C728.837 546.83 731.896 534.595 738.013 524.131C744.291 513.668 752.743 505.619 763.367 499.984C774.153 494.35 786.307 491.533 799.829 491.533C813.352 491.533 825.425 494.35 836.05 499.984C846.836 505.619 855.287 513.668 861.404 524.131C867.682 534.595 870.822 546.83 870.822 560.835C870.822 574.84 867.682 587.155 861.404 597.78C855.287 608.244 846.836 616.293 836.05 621.927C825.264 627.561 813.11 630.378 799.588 630.378ZM799.588 589.328C806.188 589.328 811.661 586.914 816.008 582.084C820.515 577.094 822.769 570.011 822.769 560.835C822.769 551.659 820.515 544.656 816.008 539.827C811.661 534.998 806.268 532.583 799.829 532.583C793.39 532.583 787.997 534.998 783.651 539.827C779.304 544.656 777.131 551.659 777.131 560.835C777.131 570.172 779.224 577.255 783.409 582.084C787.595 586.914 792.988 589.328 799.588 589.328Z" fill="#4F3835"/>
<path d="M846.129 560.835C846.129 546.83 849.027 534.595 854.822 524.131C860.618 513.668 868.667 505.619 878.969 499.984C889.433 494.35 901.346 491.533 914.707 491.533C931.932 491.533 946.42 496.282 958.172 505.78C969.923 515.117 977.489 528.236 980.87 545.139H930.644C927.746 536.285 922.112 531.858 913.741 531.858C907.785 531.858 903.036 534.354 899.494 539.344C896.114 544.173 894.423 551.337 894.423 560.835C894.423 570.333 896.114 577.577 899.494 582.567C903.036 587.558 907.785 590.053 913.741 590.053C922.273 590.053 927.907 585.626 930.644 576.772H980.87C977.489 593.514 969.923 606.634 958.172 616.132C946.42 625.629 931.932 630.378 914.707 630.378C901.346 630.378 889.433 627.561 878.969 621.927C868.667 616.293 860.618 608.244 854.822 597.78C849.027 587.316 846.129 575.001 846.129 560.835Z" fill="#4F3835"/>
<path d="M1027.33 630.378C1013.81 630.378 1001.66 627.561 990.872 621.927C980.247 616.293 971.876 608.244 965.759 597.78C959.642 587.316 956.583 575.001 956.583 560.835C956.583 546.83 959.642 534.595 965.759 524.131C972.037 513.668 980.489 505.619 991.113 499.984C1001.9 494.35 1014.05 491.533 1027.58 491.533C1041.1 491.533 1053.17 494.35 1063.8 499.984C1074.58 505.619 1083.03 513.668 1089.15 524.131C1095.43 534.595 1098.57 546.83 1098.57 560.835C1098.57 574.84 1095.43 587.155 1089.15 597.78C1083.03 608.244 1074.58 616.293 1063.8 621.927C1053.01 627.561 1040.86 630.378 1027.33 630.378ZM1027.33 589.328C1033.93 589.328 1039.41 586.914 1043.75 582.084C1048.26 577.094 1050.52 570.011 1050.52 560.835C1050.52 551.659 1048.26 544.656 1043.75 539.827C1039.41 534.998 1034.01 532.583 1027.58 532.583C1021.14 532.583 1015.74 534.998 1011.4 539.827C1007.05 544.656 1004.88 551.659 1004.88 560.835C1004.88 570.172 1006.97 577.255 1011.16 582.084C1015.34 586.914 1020.73 589.328 1027.33 589.328Z" fill="#4F3835"/>
<path d="M1073.88 560.835C1073.88 546.83 1076.37 534.595 1081.36 524.131C1086.51 513.668 1093.43 505.619 1102.13 499.984C1110.98 494.35 1120.8 491.533 1131.59 491.533C1140.92 491.533 1148.97 493.384 1155.73 497.087C1162.5 500.789 1167.73 505.78 1171.43 512.058V493.223H1218.76V628.688H1171.43V609.853C1167.73 616.132 1162.41 621.122 1155.49 624.825C1148.73 628.527 1140.76 630.378 1131.59 630.378C1120.8 630.378 1110.98 627.561 1102.13 621.927C1093.43 616.293 1086.51 608.244 1081.36 597.78C1076.37 587.155 1073.88 574.84 1073.88 560.835ZM1171.43 560.835C1171.43 552.142 1169.01 545.3 1164.19 540.31C1159.52 535.32 1153.72 532.824 1146.8 532.824C1139.72 532.824 1133.84 535.32 1129.17 540.31C1124.5 545.139 1122.17 551.981 1122.17 560.835C1122.17 569.528 1124.5 576.45 1129.17 581.601C1133.84 586.592 1139.72 589.087 1146.8 589.087C1153.72 589.087 1159.52 586.592 1164.19 581.601C1169.01 576.611 1171.43 569.689 1171.43 560.835Z" fill="#4F3835"/>
<path d="M1201.78 560.835C1201.78 546.83 1204.27 534.595 1209.27 524.131C1214.42 513.668 1221.42 505.619 1230.27 499.984C1239.13 494.35 1248.95 491.533 1259.73 491.533C1268.43 491.533 1276.15 493.384 1282.91 497.087C1289.84 500.628 1295.23 505.538 1299.09 511.816V450H1346.66V628.688H1299.09V609.853C1295.39 616.132 1290.16 621.122 1283.4 624.825C1276.64 628.527 1268.67 630.378 1259.49 630.378C1248.71 630.378 1238.89 627.561 1230.03 621.927C1221.34 616.293 1214.42 608.244 1209.27 597.78C1204.27 587.155 1201.78 574.84 1201.78 560.835ZM1299.33 560.835C1299.33 552.142 1296.92 545.3 1292.09 540.31C1287.42 535.32 1281.63 532.824 1274.7 532.824C1267.62 532.824 1261.74 535.32 1257.08 540.31C1252.41 545.139 1250.07 551.981 1250.07 560.835C1250.07 569.528 1252.41 576.45 1257.08 581.601C1261.74 586.592 1267.62 589.087 1274.7 589.087C1281.63 589.087 1287.42 586.592 1292.09 581.601C1296.92 576.611 1299.33 569.689 1299.33 560.835Z" fill="#4F3835"/>
<path d="M1466.84 559.386C1466.84 563.089 1466.6 566.791 1466.11 570.494H1376.53C1377.01 577.899 1379.02 583.453 1382.57 587.155C1386.27 590.697 1390.94 592.468 1396.57 592.468C1404.46 592.468 1410.09 588.926 1413.47 581.843H1463.94C1461.85 591.18 1457.74 599.551 1451.63 606.956C1445.67 614.2 1438.1 619.915 1428.93 624.1C1419.75 628.286 1409.61 630.378 1398.5 630.378C1385.14 630.378 1373.23 627.561 1362.76 621.927C1352.46 616.293 1344.33 608.244 1338.38 597.78C1332.58 587.316 1329.68 575.001 1329.68 560.835C1329.68 546.669 1332.58 534.434 1338.38 524.131C1344.17 513.668 1352.22 505.619 1362.52 499.984C1372.99 494.35 1384.98 491.533 1398.5 491.533C1411.86 491.533 1423.7 494.27 1434 499.743C1444.3 505.216 1452.35 513.104 1458.15 523.407C1463.94 533.549 1466.84 545.542 1466.84 559.386ZM1418.54 547.554C1418.54 541.759 1416.61 537.251 1412.75 534.032C1408.89 530.651 1404.06 528.961 1398.26 528.961C1392.47 528.961 1387.72 530.571 1384.01 533.79C1380.31 536.849 1377.9 541.437 1376.77 547.554H1418.54Z" fill="#4F3835"/>
<path d="M1442.26 560.835C1442.26 546.83 1445.16 534.595 1450.95 524.131C1456.75 513.668 1464.8 505.619 1475.1 499.984C1485.56 494.35 1497.48 491.533 1510.84 491.533C1528.06 491.533 1542.55 496.282 1554.3 505.78C1566.05 515.117 1573.62 528.236 1577 545.139H1526.77C1523.88 536.285 1518.24 531.858 1509.87 531.858C1503.91 531.858 1499.17 534.354 1495.62 539.344C1492.24 544.173 1490.55 551.337 1490.55 560.835C1490.55 570.333 1492.24 577.577 1495.62 582.567C1499.17 587.558 1503.91 590.053 1509.87 590.053C1518.4 590.053 1524.04 585.626 1526.77 576.772H1577C1573.62 593.514 1566.05 606.634 1554.3 616.132C1542.55 625.629 1528.06 630.378 1510.84 630.378C1497.48 630.378 1485.56 627.561 1475.1 621.927C1464.8 616.293 1456.75 608.244 1450.95 597.78C1445.16 587.316 1442.26 575.001 1442.26 560.835Z" fill="#4F3835"/>
</svg>
