<svg width="2160" height="1080" viewBox="0 0 2160 1080" fill="none" xmlns="http://www.w3.org/2000/svg">
<rect width="2160" height="1080" rx="20" fill="#A6192E"/>
<path d="M617.152 477.72V691.416H555.232V678.456C545.824 689.016 531.424 694.296 512.032 694.296C498.208 694.296 485.44 691.032 473.728 684.504C462.208 677.784 452.992 668.184 446.08 655.704C439.36 643.224 436 628.824 436 612.504C436 596.184 439.36 581.88 446.08 569.592C452.992 557.112 462.208 547.608 473.728 541.08C485.44 534.36 498.208 531 512.032 531C529.504 531 542.848 535.512 552.064 544.536V477.72H617.152ZM527.584 643.608C535.072 643.608 541.216 640.92 546.016 635.544C550.816 629.976 553.216 622.296 553.216 612.504C553.216 602.712 550.816 595.128 546.016 589.752C541.216 584.376 535.072 581.688 527.584 581.688C520.096 581.688 513.952 584.376 509.152 589.752C504.352 595.128 501.952 602.712 501.952 612.504C501.952 622.296 504.352 629.976 509.152 635.544C513.952 640.92 520.096 643.608 527.584 643.608Z" fill="white"/>
<path d="M657.032 386C670.856 386 683.528 389.36 695.048 396.08C706.76 402.608 715.976 412.112 722.696 424.592C729.608 437.072 733.064 451.472 733.064 467.792C733.064 484.112 729.608 498.512 722.696 510.992C715.976 523.28 706.76 532.784 695.048 539.504C683.528 546.032 670.856 549.296 657.032 549.296C639.56 549.296 626.216 544.784 617 535.76V602.288H551.912V388.88H613.832V401.84C623.24 391.28 637.64 386 657.032 386ZM641.48 498.608C648.968 498.608 655.112 495.92 659.912 490.544C664.712 485.168 667.112 477.584 667.112 467.792C667.112 458 664.712 450.416 659.912 445.04C655.112 439.472 648.968 436.688 641.48 436.688C633.992 436.688 627.848 439.472 623.048 445.04C618.248 450.416 615.848 458 615.848 467.792C615.848 477.584 618.248 485.168 623.048 490.544C627.848 495.92 633.992 498.608 641.48 498.608Z" fill="white"/>
<path d="M1001.32 397.152V504H970.36V497.52C965.656 502.8 958.456 505.44 948.76 505.44C941.848 505.44 935.464 503.808 929.608 500.544C923.848 497.184 919.24 492.384 915.784 486.144C912.424 479.904 910.744 472.704 910.744 464.544C910.744 456.384 912.424 449.232 915.784 443.088C919.24 436.848 923.848 432.096 929.608 428.832C935.464 425.472 941.848 423.792 948.76 423.792C957.496 423.792 964.168 426.048 968.776 430.56V397.152H1001.32ZM956.536 480.096C960.28 480.096 963.352 478.752 965.752 476.064C968.152 473.28 969.352 469.44 969.352 464.544C969.352 459.648 968.152 455.856 965.752 453.168C963.352 450.48 960.28 449.136 956.536 449.136C952.792 449.136 949.72 450.48 947.32 453.168C944.92 455.856 943.72 459.648 943.72 464.544C943.72 469.44 944.92 473.28 947.32 476.064C949.72 478.752 952.792 480.096 956.536 480.096ZM1015.73 425.232H1048.28V504H1015.73V425.232ZM1032 418.896C1026.15 418.896 1021.4 417.36 1017.75 414.288C1014.2 411.12 1012.42 407.136 1012.42 402.336C1012.42 397.536 1014.2 393.6 1017.75 390.528C1021.4 387.36 1026.15 385.776 1032 385.776C1037.96 385.776 1042.71 387.264 1046.26 390.24C1049.81 393.216 1051.59 397.056 1051.59 401.76C1051.59 406.752 1049.81 410.88 1046.26 414.144C1042.71 417.312 1037.96 418.896 1032 418.896ZM1097.98 423.792C1111.8 423.792 1122.36 426.912 1129.66 433.152C1136.96 439.296 1140.6 448.8 1140.6 461.664V504H1110.36V493.632C1106.62 501.504 1099.18 505.44 1088.04 505.44C1081.8 505.44 1076.48 504.384 1072.06 502.272C1067.74 500.064 1064.43 497.136 1062.12 493.488C1059.92 489.744 1058.81 485.568 1058.81 480.96C1058.81 473.184 1061.79 467.28 1067.74 463.248C1073.69 459.216 1082.72 457.2 1094.81 457.2H1107.92C1106.86 451.056 1101.92 447.984 1093.08 447.984C1089.53 447.984 1085.93 448.56 1082.28 449.712C1078.64 450.768 1075.52 452.256 1072.92 454.176L1062.56 432.72C1067.07 429.936 1072.49 427.776 1078.83 426.24C1085.26 424.608 1091.64 423.792 1097.98 423.792ZM1097.84 485.856C1100.14 485.856 1102.2 485.232 1104.03 483.984C1105.85 482.736 1107.2 480.864 1108.06 478.368V472.896H1100C1093.37 472.896 1090.06 475.104 1090.06 479.52C1090.06 481.344 1090.73 482.88 1092.08 484.128C1093.52 485.28 1095.44 485.856 1097.84 485.856ZM1207.23 423.792C1214.14 423.792 1220.48 425.472 1226.24 428.832C1232.09 432.096 1236.7 436.848 1240.06 443.088C1243.52 449.232 1245.24 456.384 1245.24 464.544C1245.24 472.704 1243.52 479.904 1240.06 486.144C1236.7 492.384 1232.09 497.184 1226.24 500.544C1220.48 503.808 1214.14 505.44 1207.23 505.44C1197.53 505.44 1190.33 502.8 1185.63 497.52V504H1154.67V397.152H1187.21V430.56C1191.82 426.048 1198.49 423.792 1207.23 423.792ZM1199.45 480.096C1203.2 480.096 1206.27 478.752 1208.67 476.064C1211.07 473.28 1212.27 469.44 1212.27 464.544C1212.27 459.648 1211.07 455.856 1208.67 453.168C1206.27 450.48 1203.2 449.136 1199.45 449.136C1195.71 449.136 1192.64 450.48 1190.24 453.168C1187.84 455.856 1186.64 459.648 1186.64 464.544C1186.64 469.44 1187.84 473.28 1190.24 476.064C1192.64 478.752 1195.71 480.096 1199.45 480.096ZM1339.3 464.544C1339.3 465.024 1339.16 467.568 1338.87 472.176H1284.15C1285.3 475.152 1287.22 477.456 1289.91 479.088C1292.6 480.624 1295.96 481.392 1299.99 481.392C1303.45 481.392 1306.33 480.96 1308.63 480.096C1311.03 479.232 1313.62 477.744 1316.41 475.632L1333.4 492.768C1325.72 501.216 1314.25 505.44 1298.98 505.44C1289.48 505.44 1281.13 503.712 1273.93 500.256C1266.73 496.704 1261.16 491.808 1257.22 485.568C1253.29 479.328 1251.32 472.32 1251.32 464.544C1251.32 456.672 1253.24 449.664 1257.08 443.52C1261.02 437.28 1266.34 432.432 1273.06 428.976C1279.88 425.52 1287.51 423.792 1295.96 423.792C1303.93 423.792 1311.18 425.376 1317.7 428.544C1324.33 431.712 1329.56 436.368 1333.4 442.512C1337.34 448.656 1339.3 456 1339.3 464.544ZM1296.25 445.968C1292.89 445.968 1290.1 446.88 1287.9 448.704C1285.69 450.528 1284.25 453.12 1283.58 456.48H1308.92C1308.25 453.216 1306.81 450.672 1304.6 448.848C1302.39 446.928 1299.61 445.968 1296.25 445.968ZM1407.61 501.264C1402.71 504.048 1396.04 505.44 1387.59 505.44C1376.55 505.44 1368.06 502.8 1362.1 497.52C1356.15 492.144 1353.18 484.128 1353.18 473.472V453.312H1342.38V429.552H1353.18V407.52H1385.72V429.552H1401.85V453.312H1385.72V473.184C1385.72 475.584 1386.34 477.456 1387.59 478.8C1388.84 480.144 1390.47 480.816 1392.49 480.816C1395.27 480.816 1397.72 480.096 1399.83 478.656L1407.61 501.264ZM1497.51 464.544C1497.51 465.024 1497.36 467.568 1497.08 472.176H1442.36C1443.51 475.152 1445.43 477.456 1448.12 479.088C1450.8 480.624 1454.16 481.392 1458.2 481.392C1461.65 481.392 1464.53 480.96 1466.84 480.096C1469.24 479.232 1471.83 477.744 1474.61 475.632L1491.6 492.768C1483.92 501.216 1472.45 505.44 1457.19 505.44C1447.68 505.44 1439.33 503.712 1432.13 500.256C1424.93 496.704 1419.36 491.808 1415.43 485.568C1411.49 479.328 1409.52 472.32 1409.52 464.544C1409.52 456.672 1411.44 449.664 1415.28 443.52C1419.22 437.28 1424.55 432.432 1431.27 428.976C1438.08 425.52 1445.72 423.792 1454.16 423.792C1462.13 423.792 1469.38 425.376 1475.91 428.544C1482.53 431.712 1487.76 436.368 1491.6 442.512C1495.54 448.656 1497.51 456 1497.51 464.544ZM1454.45 445.968C1451.09 445.968 1448.31 446.88 1446.1 448.704C1443.89 450.528 1442.45 453.12 1441.78 456.48H1467.12C1466.45 453.216 1465.01 450.672 1462.8 448.848C1460.6 446.928 1457.81 445.968 1454.45 445.968ZM1538.59 505.44C1531.87 505.44 1525.25 504.72 1518.72 503.28C1512.19 501.84 1506.91 499.968 1502.88 497.664L1511.81 476.208C1515.46 478.416 1519.78 480.144 1524.77 481.392C1529.76 482.64 1534.61 483.264 1539.31 483.264C1543.06 483.264 1545.65 482.976 1547.09 482.4C1548.63 481.728 1549.39 480.768 1549.39 479.52C1549.39 478.272 1548.43 477.408 1546.51 476.928C1544.69 476.448 1541.67 475.968 1537.44 475.488C1531.01 474.72 1525.54 473.76 1521.03 472.608C1516.51 471.36 1512.53 469.008 1509.07 465.552C1505.71 462.096 1504.03 457.152 1504.03 450.72C1504.03 445.632 1505.57 441.072 1508.64 437.04C1511.71 433.008 1516.27 429.792 1522.32 427.392C1528.47 424.992 1535.81 423.792 1544.35 423.792C1550.31 423.792 1556.11 424.368 1561.78 425.52C1567.54 426.576 1572.43 428.16 1576.47 430.272L1567.54 451.728C1560.63 447.888 1553.04 445.968 1544.79 445.968C1537.68 445.968 1534.13 447.216 1534.13 449.712C1534.13 450.96 1535.09 451.872 1537.01 452.448C1538.93 452.928 1541.95 453.408 1546.08 453.888C1552.51 454.656 1557.94 455.664 1562.35 456.912C1566.87 458.16 1570.8 460.512 1574.16 463.968C1577.62 467.424 1579.35 472.368 1579.35 478.8C1579.35 483.696 1577.81 488.16 1574.74 492.192C1571.67 496.224 1567.06 499.44 1560.91 501.84C1554.77 504.24 1547.33 505.44 1538.59 505.44ZM963.736 579.2C973.048 579.2 981.16 580.736 988.072 583.808C994.984 586.88 1000.31 591.296 1004.06 597.056C1007.8 602.816 1009.67 609.536 1009.67 617.216C1009.67 624.896 1007.8 631.616 1004.06 637.376C1000.31 643.136 994.984 647.552 988.072 650.624C981.16 653.696 973.048 655.232 963.736 655.232H949.192V680H915.208V579.2H963.736ZM961.576 629.024C966.184 629.024 969.64 628.016 971.944 626C974.248 623.888 975.4 620.96 975.4 617.216C975.4 613.472 974.248 610.592 971.944 608.576C969.64 606.464 966.184 605.408 961.576 605.408H949.192V629.024H961.576ZM1052.18 609.728C1057.94 603.104 1066.43 599.792 1077.66 599.792V628.592C1075.07 628.208 1072.67 628.016 1070.46 628.016C1059.33 628.016 1053.76 633.68 1053.76 645.008V680H1021.22V601.232H1052.18V609.728ZM1169.99 640.544C1169.99 641.024 1169.85 643.568 1169.56 648.176H1114.84C1115.99 651.152 1117.91 653.456 1120.6 655.088C1123.29 656.624 1126.65 657.392 1130.68 657.392C1134.14 657.392 1137.02 656.96 1139.32 656.096C1141.72 655.232 1144.31 653.744 1147.1 651.632L1164.09 668.768C1156.41 677.216 1144.94 681.44 1129.67 681.44C1120.17 681.44 1111.82 679.712 1104.62 676.256C1097.42 672.704 1091.85 667.808 1087.91 661.568C1083.98 655.328 1082.01 648.32 1082.01 640.544C1082.01 632.672 1083.93 625.664 1087.77 619.52C1091.7 613.28 1097.03 608.432 1103.75 604.976C1110.57 601.52 1118.2 599.792 1126.65 599.792C1134.62 599.792 1141.86 601.376 1148.39 604.544C1155.02 607.712 1160.25 612.368 1164.09 618.512C1168.02 624.656 1169.99 632 1169.99 640.544ZM1126.94 621.968C1123.58 621.968 1120.79 622.88 1118.58 624.704C1116.38 626.528 1114.94 629.12 1114.26 632.48H1139.61C1138.94 629.216 1137.5 626.672 1135.29 624.848C1133.08 622.928 1130.3 621.968 1126.94 621.968ZM1267.38 573.152V680H1236.42V673.52C1231.72 678.8 1224.52 681.44 1214.82 681.44C1207.91 681.44 1201.53 679.808 1195.67 676.544C1189.91 673.184 1185.3 668.384 1181.85 662.144C1178.49 655.904 1176.81 648.704 1176.81 640.544C1176.81 632.384 1178.49 625.232 1181.85 619.088C1185.3 612.848 1189.91 608.096 1195.67 604.832C1201.53 601.472 1207.91 599.792 1214.82 599.792C1223.56 599.792 1230.23 602.048 1234.84 606.56V573.152H1267.38ZM1222.6 656.096C1226.34 656.096 1229.41 654.752 1231.81 652.064C1234.21 649.28 1235.41 645.44 1235.41 640.544C1235.41 635.648 1234.21 631.856 1231.81 629.168C1229.41 626.48 1226.34 625.136 1222.6 625.136C1218.85 625.136 1215.78 626.48 1213.38 629.168C1210.98 631.856 1209.78 635.648 1209.78 640.544C1209.78 645.44 1210.98 649.28 1213.38 652.064C1215.78 654.752 1218.85 656.096 1222.6 656.096ZM1281.79 601.232H1314.34V680H1281.79V601.232ZM1298.07 594.896C1292.21 594.896 1287.46 593.36 1283.81 590.288C1280.26 587.12 1278.48 583.136 1278.48 578.336C1278.48 573.536 1280.26 569.6 1283.81 566.528C1287.46 563.36 1292.21 561.776 1298.07 561.776C1304.02 561.776 1308.77 563.264 1312.32 566.24C1315.87 569.216 1317.65 573.056 1317.65 577.76C1317.65 582.752 1315.87 586.88 1312.32 590.144C1308.77 593.312 1304.02 594.896 1298.07 594.896ZM1371.1 681.44C1362.17 681.44 1354.15 679.712 1347.05 676.256C1340.04 672.8 1334.52 667.952 1330.49 661.712C1326.55 655.472 1324.59 648.416 1324.59 640.544C1324.59 632.672 1326.55 625.664 1330.49 619.52C1334.52 613.28 1340.04 608.432 1347.05 604.976C1354.15 601.52 1362.17 599.792 1371.1 599.792C1380.7 599.792 1388.91 601.856 1395.72 605.984C1402.54 610.112 1407.24 615.824 1409.83 623.12L1384.63 635.504C1381.56 628.592 1377 625.136 1370.95 625.136C1367.11 625.136 1363.9 626.48 1361.31 629.168C1358.81 631.856 1357.56 635.648 1357.56 640.544C1357.56 645.536 1358.81 649.376 1361.31 652.064C1363.9 654.752 1367.11 656.096 1370.95 656.096C1377 656.096 1381.56 652.64 1384.63 645.728L1409.83 658.112C1407.24 665.408 1402.54 671.12 1395.72 675.248C1388.91 679.376 1380.7 681.44 1371.1 681.44ZM1476.79 677.264C1471.9 680.048 1465.23 681.44 1456.78 681.44C1445.74 681.44 1437.24 678.8 1431.29 673.52C1425.34 668.144 1422.36 660.128 1422.36 649.472V629.312H1411.56V605.552H1422.36V583.52H1454.91V605.552H1471.03V629.312H1454.91V649.184C1454.91 651.584 1455.53 653.456 1456.78 654.8C1458.03 656.144 1459.66 656.816 1461.67 656.816C1464.46 656.816 1466.91 656.096 1469.02 654.656L1476.79 677.264ZM1485 601.232H1517.54V680H1485V601.232ZM1501.27 594.896C1495.41 594.896 1490.66 593.36 1487.01 590.288C1483.46 587.12 1481.68 583.136 1481.68 578.336C1481.68 573.536 1483.46 569.6 1487.01 566.528C1490.66 563.36 1495.41 561.776 1501.27 561.776C1507.22 561.776 1511.97 563.264 1515.52 566.24C1519.08 569.216 1520.85 573.056 1520.85 577.76C1520.85 582.752 1519.08 586.88 1515.52 590.144C1511.97 593.312 1507.22 594.896 1501.27 594.896ZM1573.58 681.44C1564.85 681.44 1556.97 679.712 1549.97 676.256C1543.05 672.704 1537.63 667.856 1533.69 661.712C1529.76 655.472 1527.79 648.416 1527.79 640.544C1527.79 632.672 1529.76 625.664 1533.69 619.52C1537.63 613.28 1543.05 608.432 1549.97 604.976C1556.97 601.52 1564.85 599.792 1573.58 599.792C1582.41 599.792 1590.29 601.52 1597.2 604.976C1604.21 608.432 1609.63 613.28 1613.47 619.52C1617.41 625.664 1619.37 632.672 1619.37 640.544C1619.37 648.416 1617.41 655.472 1613.47 661.712C1609.63 667.856 1604.21 672.704 1597.2 676.256C1590.29 679.712 1582.41 681.44 1573.58 681.44ZM1573.58 656.096C1577.33 656.096 1580.4 654.752 1582.8 652.064C1585.2 649.28 1586.4 645.44 1586.4 640.544C1586.4 635.648 1585.2 631.856 1582.8 629.168C1580.4 626.48 1577.33 625.136 1573.58 625.136C1569.84 625.136 1566.77 626.48 1564.37 629.168C1561.97 631.856 1560.77 635.648 1560.77 640.544C1560.77 645.44 1561.97 649.28 1564.37 652.064C1566.77 654.752 1569.84 656.096 1573.58 656.096ZM1684.28 599.792C1693.98 599.792 1701.75 602.72 1707.61 608.576C1713.56 614.432 1716.54 623.264 1716.54 635.072V680H1683.99V640.688C1683.99 631.664 1680.78 627.152 1674.34 627.152C1670.7 627.152 1667.72 628.448 1665.42 631.04C1663.21 633.536 1662.1 637.52 1662.1 642.992V680H1629.56V601.232H1660.52V609.008C1663.59 605.936 1667.14 603.632 1671.18 602.096C1675.21 600.56 1679.58 599.792 1684.28 599.792Z" fill="white"/>
<rect x="810" y="386" width="20" height="308" rx="10" fill="white"/>
</svg>
