<svg xmlns="http://www.w3.org/2000/svg" width="61" height="19" fill="none" viewBox="0 0 61 19">
  <path fill="#FFB037" d="M4.016.24V18H.656V.24h3.36zm9.224 17.976c-1.28 0-2.432-.28-3.456-.84a6.301 6.301 0 01-2.424-2.424c-.576-1.04-.864-2.24-.864-3.6 0-1.36.296-2.56.888-3.6a6.253 6.253 0 012.472-2.4c1.04-.576 2.2-.864 3.48-.864 1.28 0 2.44.288 3.48.864a6.091 6.091 0 012.448 2.4c.608 1.04.912 2.24.912 3.6 0 1.36-.312 2.56-.936 3.6a6.377 6.377 0 01-2.496 2.424c-1.04.56-2.208.84-3.504.84zm0-2.928c.608 0 1.176-.144 1.704-.432.544-.304.976-.752 1.296-1.344.32-.592.48-1.312.48-2.16 0-1.264-.336-2.232-1.008-2.904-.656-.688-1.464-1.032-2.424-1.032s-1.768.344-2.424 1.032c-.64.672-.96 1.64-.96 2.904s.312 2.24.936 2.928c.64.672 1.44 1.008 2.4 1.008zM39.152 4.512c1.632 0 2.944.504 3.936 1.512 1.008.992 1.512 2.384 1.512 4.176V18h-3.36v-7.344c0-1.04-.264-1.832-.792-2.376-.528-.56-1.248-.84-2.16-.84-.912 0-1.64.28-2.184.84-.528.544-.792 1.336-.792 2.376V18h-3.36v-7.344c0-1.04-.264-1.832-.792-2.376-.528-.56-1.248-.84-2.16-.84-.928 0-1.664.28-2.208.84-.528.544-.792 1.336-.792 2.376V18h-3.36V4.704H26v1.608c.432-.56.984-1 1.656-1.32.688-.32 1.44-.48 2.256-.48 1.04 0 1.968.224 2.784.672a4.55 4.55 0 011.896 1.872c.432-.768 1.056-1.384 1.872-1.848a5.43 5.43 0 012.688-.696zm14.54 13.704c-1.28 0-2.431-.28-3.455-.84a6.301 6.301 0 01-2.424-2.424c-.576-1.04-.864-2.24-.864-3.6 0-1.36.296-2.56.888-3.6a6.253 6.253 0 012.472-2.4c1.04-.576 2.2-.864 3.48-.864 1.28 0 2.44.288 3.48.864a6.091 6.091 0 012.448 2.4c.608 1.04.912 2.24.912 3.6 0 1.36-.312 2.56-.936 3.6a6.377 6.377 0 01-2.496 2.424c-1.04.56-2.208.84-3.504.84zm0-2.928c.609 0 1.177-.144 1.705-.432.544-.304.976-.752 1.296-1.344.32-.592.48-1.312.48-2.16 0-1.264-.336-2.232-1.008-2.904-.656-.688-1.464-1.032-2.424-1.032s-1.768.344-2.424 1.032c-.64.672-.96 1.64-.96 2.904s.312 2.24.936 2.928c.64.672 1.44 1.008 2.4 1.008z"/>
</svg>
