<svg xmlns="http://www.w3.org/2000/svg" width="30" height="30" fill="none" viewBox="0 0 30 30">
  <g clip-path="url(#clip0)">
    <path fill="#FFB037" d="M27.24 3.766H2.76A2.764 2.764 0 000 6.528 2.764 2.764 0 002.76 9.29h24.48A2.764 2.764 0 0030 6.529a2.764 2.764 0 00-2.76-2.763zM27.24 12.238H2.76A2.764 2.764 0 000 15.001a2.764 2.764 0 002.76 2.76h24.48a2.764 2.764 0 002.76-2.76 2.764 2.764 0 00-2.76-2.763zM27.24 20.71H2.76A2.764 2.764 0 000 23.475a2.764 2.764 0 002.76 2.76h24.48a2.764 2.764 0 002.76-2.76 2.764 2.764 0 00-2.76-2.763z"/>
  </g>
  <defs>
    <clipPath id="clip0">
      <path fill="#fff" d="M0 0h30v30H0z"/>
    </clipPath>
  </defs>
</svg>
