<svg xmlns="http://www.w3.org/2000/svg" width="431" height="431" fill="none" viewBox="0 0 431 431">
  <path fill="url(#paint0_linear)" d="M411.983 242.719C375.5 168.143 271.159 58.914 135.586 58.629-5.888 58.338-19.574 198.651 56.68 237.66c76.254 39.009-35.243 87.612 44.459 136.461 80.67 49.439 253.077 44.798 295.514 6.339 42.437-38.458 31.085-105.522 15.33-137.741z"/>
  <path fill="url(#paint1_linear)" d="M331.479 148.211s-14.687-21.563-41.237-24.136c0-18.003.809-68.337.809-68.337s41.422 3.25 41.197 15.403c-.225 12.155-.769 77.07-.769 77.07z" opacity=".5"/>
  <path fill="url(#paint2_linear)" d="M162.878 376.946v10.112l-17.406 1.823-.378-4.449 2.036-6.279 15.748-1.207z"/>
  <path fill="#1F1844" d="M185.662 401.646v2.4a4.486 4.486 0 01-4.191 4.462c-3.767.229-7.547.04-11.272-.563a121.724 121.724 0 01-20.722-5.305c-3.481-1.16-5.138-1.16-5.636-3.149-.497-1.99.12-6.684.12-6.684l20.694 4.721 21.007 4.118z"/>
  <path fill="url(#paint3_linear)" d="M197.537 364.042l3.395 9.164-1.299 9.462-2.54 2.255-10.662-3.203-2.619-4.045 2.725-14.349 11 .716z"/>
  <path fill="#1F1844" d="M182.346 384.432v4.078a2.907 2.907 0 002.507 2.878c2.864.398 7.472 1.067 9.946 1.558 3.806.743 12.903 4.051 18.029 4.383 5.125.331 10.914.411 13.48-1.24 2.566-1.651 1.989-5.543 1.989-5.543l-45.951-6.114z"/>
  <path fill="url(#paint4_linear)" d="M183.845 373.518s-2.653 10.092-1.161 11.577c1.492 1.486 12.652 2.235 15.629 4.138 2.977 1.903 15.131 4.88 21.583 4.383 6.452-.498 8.269-1.326 8.435-3.057.165-1.731-12.818-4.138-15.132-5.875s-3.72-7.857-6.949-9.946c-3.229-2.089-.743-5.789-4.138-5.968-3.394-.179-2.479 5.305-7.525 5.623a45.4 45.4 0 01-10.742-.875z"/>
  <path fill="#DA8C15" d="M163.044 205.706s-6.631 6.631-6.299 21.882c.331 15.251 4.31 53.378 1.657 64.981-2.652 11.604-8.951 28.844-10.277 48.405a42349.662 42349.662 0 00-2.653 39.453h19.23s-3.647-20.224 1.989-34.148c5.636-13.925 12.267-36.47 14.919-43.432a112.16 112.16 0 003.647-10.854s-4.973 50.314-4.973 61.918.663 21.881 3.66 21.55c2.997-.332 12.917-4.642 14.243-5.636 1.326-.995 2.984-17.572 2.652-23.54-.331-5.967 2.653-38.79 2.653-38.79s8.288-25.197 10.609-36.137c2.321-10.941 1.658-56.362 1.658-56.362l-3.647-7.294-49.068-1.996z"/>
  <path stroke="#fff" stroke-miterlimit="10" d="M196.861 247.149c-6.299 6.63-11.604 45.918-11.604 45.918"/>
  <path fill="url(#paint5_linear)" d="M157.242 382.774c.252-.212.55-.49.875-.802 2.029-1.956 5.305-5.338 7.745-3.043 2.818 2.652 1.83 10.529 10.278 14.746 2.526 1.26 11.438 7.148 9.117 8.972-2.321 1.823-1.658 1.492-13.925.994-12.266-.497-27.517-9.946-27.517-9.946s.577-12.432 1.657-12.432c1.081 0-.165 4.641 3.316 5.158 3.481.518 8.454-3.647 8.454-3.647z"/>
  <path fill="url(#paint6_linear)" d="M285.216 87.267c-.086.491-1.824.577-4.31.995-2.487.418-3.07 1.658-3.979 2.235-.908.577-1.491 1.903-.815 2.234.676.332 3.799-2.234 4.549-2.234.749 0 1.571 1.08 1.657 1.492.086.41 1.326 1.823 1.572 3.063a1.198 1.198 0 01-.222.95 1.198 1.198 0 01-.859.462v1.671c0 1.16-1.737 2.566-1.989 2.739-.252.172-1.24-.332-1.658-1.167-.418-.836-1.817 1.989-1.817 1.989s-2.652 3.07-3.647 5.146c-.663 1.452-2.917 3.361-4.283 4.369a39.617 39.617 0 01-9.21-3.063c.358-1.844 1.1-5.888.974-7.294a5.299 5.299 0 012.182-4.323s.915-4.642 1.14-4.774c.226-.133.498-3.767 0-5.007-.497-1.24.478-1.578.962-1.518a6.24 6.24 0 012.718 2.6c.557-.743 1.671-2.242 1.917-2.733.331-.663 4.144-4.641 4.476-5.132.331-.49 2.99-3.494 4.641-2.32.875.623-.995 2.652-1.989 3.892-.995 1.24-5.723 8.202-4.973 8.374.749.173 3.647-3.156 4.542-3.733a3.975 3.975 0 012.254-.908 22.836 22.836 0 015.384 0c1.28.165.869 1.492.783 1.995z"/>
  <path fill="#FFB037" d="M270.131 111.331c-.882 11.491-7.075 37.351-12.817 43.982-5.743 6.63-38.459-4.642-38.459-4.642s3.156 64.106-5.245 64.318c-8.401.213-52.887-5.304-52.887-5.304s2.871-19.011 3.461-29.394c.591-10.384-11.272-44.427-12.963-51.17-1.691-6.744.219-14.588 3.316-17.459 3.096-2.871 19.057-6.312 21.636-6.571 20.555-2.062 32.703 12.705 35.879 14.74 6.127-1.167 12.824-2.652 12.824-2.652l.132.663 1.99 9.595.663 3.315c7.4 3.382 18.374 6.187 18.374 6.187l4.727-10.232 1.565-3.381 5.139-11.12 2.049-4.443s.239.133.663.345l.663.318a40.292 40.292 0 008.541 2.745l.749.16z"/>
  <path fill="url(#paint7_linear)" d="M260.019 109.063c-.497 0 2.321.908.166 2.407a6.063 6.063 0 01-2.712.762c-2.706.259-6.16-.179-6.982.06-1.167.332-9.284 5.968-8.541 9.787 2.129 0 8.275-.345 10.384 1.273a1.649 1.649 0 01.723 1.326c.039 1.393-.995 1.93-2.288 2.089a19.15 19.15 0 01-4.343-.265c-1.572-.166-4.396-.61-5.391.318-.995.928-4.555 2.168-7.208 1.008-1.803-.789-4.999-.584-6.849-.365l-1.989-9.594c2.493-1.181 6.829-3.243 7.957-3.886 1.657-.909 7.545-3.647 9.031-4.39 1.485-.742 7.293-3.063 8.288-3.395.995-.331 11.113-1.498 12.187-.915.776.425-.616 2.235-1.631 3.203-.22.25-.494.448-.802.577z"/>
  <path fill="url(#paint8_linear)" d="M178.275 108.241c-.146-1.207-.464-4.33-1.001-7.957-.372-2.493-.763-5.073-1.061-7.069 0-.172-.053-.338-.08-.497a25.513 25.513 0 00-.663-3.203l-.166-.165c-4.794-4.741-5.304-8.62-3.501-10.484a3.59 3.59 0 01.822-.623s-2.944-6.942-1.684-13.58c1.678-8.772 12.731-12.048 20.025-12.028 7.294.02 15.569 6.445 15.41 14.588-.06 3.242-.663 6.345-.225 9.163.437 2.819 2.857 7.01 2.035 12.029-1.16 7.194-7.519 10.86-11.716 12.048-.536.152-1.081.271-1.631.358l.139 1.193.119.968.126 1.048c.177.971.228 1.96.153 2.944a7.735 7.735 0 01-6.916 6.366c-6.154.756-9.827-2.169-10.185-5.099z"/>
  <path fill="url(#paint9_linear)" d="M175.715 81.306s-1.816-1.876-2.652-.132c-.835 1.744 1.22 4.23 1.22 4.23l1.432-4.097z"/>
  <path fill="#000" d="M178.779 84.576l.278 1.989c5.086 1.233 17.108 5.517 19.07 5.264 2.494-.318 2.494-3.315 3.979-3.05 1.485.266 1.764 1.99 2.652 1.738.464-.133 3.004-2.785 3.66-4.27 0 0-.192 5.151-.291 6.073-.219 2.142-3.601 7.294-3.601 7.294a2.3 2.3 0 01-1.591 1.074l-5.822.995-3.316-.816c-4.562-.975-16.106-6.63-16.464-7.79a28.418 28.418 0 01-1.173-6.486l2.619-2.015z"/>
  <path fill="url(#paint10_linear)" d="M176.259 93.567a25.358 25.358 0 0018.891 9.74l-.119-.968-.139-1.193c-5.305-1.187-11.783-4.383-19.541-11.452l.165.166c.29 1.052.511 2.122.664 3.203.026.166.059.331.079.504z"/>
  <path fill="url(#paint11_linear)" d="M174.31 146.792c-3.601.219-20.118-11.219-20.118-11.219s12.764 13.427 18.944 14.919c6.18 1.492 54.797-19.395 54.797-19.395s-50.023 15.443-53.623 15.695z"/>
  <path fill="url(#paint12_linear)" d="M174.568 120.819s1.499 4.642 2.991 5.139c1.492.497 24.335-3.978 31.065-5.139 1.16-.199 2.413-.431 3.687-.663l-32.962 3.435-4.781-3.435"/>
  <path fill="url(#paint13_linear)" d="M212.118 86.26v67.799s62.913 17.903 119.354-5.848c0-37.636.769-77.07.769-77.07-18.44 31.225-120.123 15.119-120.123 15.119z" opacity=".5"/>
  <path fill="url(#paint14_linear)" d="M142.575 196.582L60.93 182.863v-79.556l81.645 5.146v88.129z" opacity=".5"/>
  <path fill="url(#paint15_linear)" d="M270.131 244.755l-37.703 9.621V200.7l37.703-6.67v50.725z" opacity=".5"/>
  <path fill="url(#paint16_linear)" d="M350.231 244.755l-37.703 9.621V200.7l37.703-6.67v50.725z" opacity=".5"/>
  <path fill="#E9E8EE" d="M77.494 177.85l-9.714-1.684v-51.017l9.714.968v51.733zM95.364 180.96l-10.218-1.777v-35.541l10.218 1.26v36.058zM114.169 184.229l-10.756-1.87v-47.648l10.756 1.16v48.358zM133.988 187.677l-11.339-1.969v-66.361l11.339.962v67.368z"/>
  <path stroke="#E8E7ED" stroke-linecap="round" stroke-miterlimit="10" stroke-width="4" d="M218.113 144.902l8.739-16.006 13.361 16.006 18.705-28.685 12.572 28.685 7.181-14.342 8.839 7.121 14.15-34.035"/>
  <path fill="#E9E8EE" d="M344.8 207.782l-5.968 1.452c-1.611.391-2.844-1.213-2.738-3.594.106-2.38 1.505-4.588 3.11-4.94l5.967-1.286c1.532-.332 2.653 1.26 2.58 3.547-.1 2.294-1.413 4.449-2.951 4.821z"/>
  <path fill="url(#paint17_linear)" d="M347.326 203.061c-.092 2.102-1.326 4.084-2.705 4.422-1.379.339-2.506-1.107-2.414-3.249.093-2.141 1.327-4.124 2.752-4.436 1.426-.311 2.493 1.161 2.367 3.263z" opacity=".5"/>
  <path fill="#E9E8EE" d="M344.177 222.217l-5.968 1.737c-1.611.471-2.851-1.074-2.745-3.454.106-2.381 1.505-4.642 3.116-5.08l5.968-1.571c1.532-.405 2.685 1.127 2.586 3.421-.106 2.288-1.419 4.503-2.957 4.947z"/>
  <path fill="url(#paint18_linear)" d="M346.703 217.383c-.093 2.102-1.326 4.138-2.712 4.542-1.386.405-2.513-.988-2.42-3.123.093-2.135 1.326-4.177 2.758-4.555 1.432-.378 2.46 1.034 2.374 3.136z" opacity=".5"/>
  <path fill="#E8E7ED" d="M295.653 73.893a9.613 9.613 0 009.608 9.608V80.85a6.95 6.95 0 01-2.964-13.262l-.836-2.54a9.611 9.611 0 00-5.808 8.846zM312.197 73.529v.364a6.95 6.95 0 01-.345 2.155l2.612.53c.229-.787.356-1.6.378-2.42l-2.645-.63z"/>
  <path fill="#E8E7ED" d="M314.862 73.893a9.612 9.612 0 00-9.601-9.575v2.653a6.957 6.957 0 016.936 6.584l2.652.663c.006-.152.013-.239.013-.325z"/>
  <path stroke="#E8E7ED" stroke-linecap="round" stroke-miterlimit="10" stroke-width="4" d="M237.077 205.706l28.949-4.714M237.077 213.995l28.949-5.006M237.077 222.283l28.949-5.291M237.077 230.572l28.949-5.577M237.077 238.86l28.949-5.868M237.077 247.149l28.949-6.154M316.42 204.745l9.104-1.399M316.42 210.805l11.405-1.916M316.42 216.859l13.699-2.427M316.42 222.92l16-2.944M316.42 228.974l18.295-3.462M316.42 235.034l20.589-3.978M316.42 241.095l22.89-4.496M316.42 247.149l25.184-5.007"/>
  <defs>
    <linearGradient id="paint0_linear" x1="10.742" x2="426.166" y1="234.444" y2="234.444" gradientUnits="userSpaceOnUse">
      <stop stop-color="#F0F2F5"/>
      <stop offset=".99" stop-color="#F5F7F8"/>
    </linearGradient>
    <linearGradient id="paint1_linear" x1="290.242" x2="332.248" y1="101.975" y2="101.975" gradientUnits="userSpaceOnUse">
      <stop stop-color="#A7A5EE"/>
      <stop offset=".44" stop-color="#9D9CE8"/>
      <stop offset=".89" stop-color="#8988D5"/>
    </linearGradient>
    <linearGradient id="paint2_linear" x1="145.094" x2="162.878" y1="382.914" y2="382.914" gradientUnits="userSpaceOnUse">
      <stop stop-color="#753200"/>
      <stop offset="1" stop-color="#A04400"/>
    </linearGradient>
    <linearGradient id="paint3_linear" x1="43541.3" x2="43371.3" y1="181.932" y2="-510.309" gradientUnits="userSpaceOnUse">
      <stop stop-color="#753200"/>
      <stop offset="1" stop-color="#A04400"/>
    </linearGradient>
    <linearGradient id="paint4_linear" x1="18067" x2="21272.5" y1="14687.9" y2="14687.9" gradientUnits="userSpaceOnUse">
      <stop stop-color="#FFB037"/>
      <stop offset=".44" stop-color="#9D9CE8"/>
      <stop offset=".89" stop-color="#8988D5"/>
    </linearGradient>
    <linearGradient id="paint5_linear" x1="9215.07" x2="11852.9" y1="15638.7" y2="15638.7" gradientUnits="userSpaceOnUse">
      <stop stop-color="#FFB037"/>
      <stop offset=".44" stop-color="#9D9CE8"/>
      <stop offset=".89" stop-color="#8988D5"/>
    </linearGradient>
    <linearGradient id="paint6_linear" x1="10126.6" x2="11080" y1="4888.7" y2="4888.7" gradientUnits="userSpaceOnUse">
      <stop stop-color="#753200"/>
      <stop offset="1" stop-color="#A04400"/>
    </linearGradient>
    <linearGradient id="paint7_linear" x1="13014.6" x2="15158.7" y1="4183.09" y2="4183.09" gradientUnits="userSpaceOnUse">
      <stop stop-color="#753200"/>
      <stop offset="1" stop-color="#A04400"/>
    </linearGradient>
    <linearGradient id="paint8_linear" x1="22698.7" x2="19772.4" y1="22054" y2="22066.4" gradientUnits="userSpaceOnUse">
      <stop stop-color="#753200"/>
      <stop offset="1" stop-color="#A04400"/>
    </linearGradient>
    <linearGradient id="paint9_linear" x1="1282.25" x2="1296.68" y1="1748.64" y2="1752" gradientUnits="userSpaceOnUse">
      <stop stop-color="#753200"/>
      <stop offset="1" stop-color="#A04400"/>
    </linearGradient>
    <linearGradient id="paint10_linear" x1="176.552" x2="195.793" y1="91.951" y2="102.267" gradientUnits="userSpaceOnUse">
      <stop stop-color="#A04400"/>
      <stop offset="1" stop-color="#753200"/>
    </linearGradient>
    <linearGradient id="paint11_linear" x1="154.185" x2="227.926" y1="140.838" y2="140.838" gradientUnits="userSpaceOnUse">
      <stop offset=".01" stop-color="#2D1582"/>
      <stop offset="1" stop-color="#4822D1"/>
    </linearGradient>
    <linearGradient id="paint12_linear" x1="10111" x2="12259.3" y1="1204.18" y2="1204.18" gradientUnits="userSpaceOnUse">
      <stop offset=".01" stop-color="#2D1582"/>
      <stop offset="1" stop-color="#4822D1"/>
    </linearGradient>
    <linearGradient id="paint13_linear" x1="38639.5" x2="60402.2" y1="15687.4" y2="15687.4" gradientUnits="userSpaceOnUse">
      <stop stop-color="#A7A5EE"/>
      <stop offset=".44" stop-color="#9D9CE8"/>
      <stop offset=".89" stop-color="#8988D5"/>
    </linearGradient>
    <linearGradient id="paint14_linear" x1="7563.26" x2="17616.2" y1="21195.6" y2="21195.6" gradientUnits="userSpaceOnUse">
      <stop stop-color="#A7A5EE"/>
      <stop offset=".44" stop-color="#9D9CE8"/>
      <stop offset=".89" stop-color="#8988D5"/>
    </linearGradient>
    <linearGradient id="paint15_linear" x1="13448.3" x2="15592.1" y1="20598.4" y2="20598.4" gradientUnits="userSpaceOnUse">
      <stop stop-color="#A7A5EE"/>
      <stop offset=".44" stop-color="#9D9CE8"/>
      <stop offset=".89" stop-color="#8988D5"/>
    </linearGradient>
    <linearGradient id="paint16_linear" x1="18082.9" x2="20226.7" y1="20598.4" y2="20598.4" gradientUnits="userSpaceOnUse">
      <stop stop-color="#A7A5EE"/>
      <stop offset=".44" stop-color="#9D9CE8"/>
      <stop offset=".89" stop-color="#8988D5"/>
    </linearGradient>
    <linearGradient id="paint17_linear" x1="2793.06" x2="2832.29" y1="2367.16" y2="2368.72" gradientUnits="userSpaceOnUse">
      <stop stop-color="#A7A5EE"/>
      <stop offset=".44" stop-color="#9D9CE8"/>
      <stop offset=".89" stop-color="#8988D5"/>
    </linearGradient>
    <linearGradient id="paint18_linear" x1="2788.67" x2="2827.96" y1="2560.89" y2="2562.46" gradientUnits="userSpaceOnUse">
      <stop stop-color="#A7A5EE"/>
      <stop offset=".44" stop-color="#9D9CE8"/>
      <stop offset=".89" stop-color="#8988D5"/>
    </linearGradient>
  </defs>
</svg>
